<svg width="24" height="24" viewBox="0 0 24 24" fill="none" xmlns="http://www.w3.org/2000/svg">
<path id="account" fill-rule="evenodd" clip-rule="evenodd" d="M9.99999 7C9.99999 5.89543 10.8954 5 12 5C13.1046 5 14 5.89543 14 7C14 8.10457 13.1046 9 12 9C10.8954 9 9.99999 8.10457 9.99999 7ZM12 3C9.79085 3 7.99999 4.79086 7.99999 7C7.99999 9.20914 9.79085 11 12 11C14.2091 11 16 9.20914 16 7C16 4.79086 14.2091 3 12 3ZM6 17C6 16.5854 6.27633 16.0964 6.86286 15.6556C7.44861 15.2153 8.11798 15 8.5 15H15.5C15.882 15 16.5514 15.2153 17.1371 15.6556C17.7237 16.0964 18 16.5854 18 17C18 17.5523 17.5523 18 17 18H16.9805H16.9609H16.9414H16.9219H16.9023H16.8828H16.8633H16.8437H16.8242H16.8047H16.7851H16.7656H16.7461H16.7266H16.707H16.6875H16.668H16.6484H16.6289H16.6094H16.5898H16.5703H16.5508H16.5312H16.5117H16.4922H16.4726H16.4531H16.4336H16.4141H16.3945H16.375H16.3555H16.3359H16.3164H16.2969H16.2773H16.2578H16.2383H16.2187H16.1992H16.1797H16.1601H16.1406H16.1211H16.1016H16.082H16.0625H16.043H16.0234H16.0039H15.9844H15.9648H15.9453H15.9258H15.9062H15.8867H15.8672H15.8476H15.8281H15.8086H15.7891H15.7695H15.75H15.7305H15.7109H15.6914H15.6719H15.6523H15.6328H15.6133H15.5937H15.5742H15.5547H15.5351H15.5156H15.4961H15.4766H15.457H15.4375H15.418H15.3984H15.3789H15.3594H15.3398H15.3203H15.3008H15.2812H15.2617H15.2422H15.2226H15.2031H15.1836H15.1641H15.1445H15.125H15.1055H15.0859H15.0664H15.0469H15.0273H15.0078H14.9883H14.9687H14.9492H14.9297H14.9101H14.8906H14.8711H14.8516H14.832H14.8125H14.793H14.7734H14.7539H14.7344H14.7148H14.6953H14.6758H14.6562H14.6367H14.6172H14.5976H14.5781H14.5586H14.5391H14.5195H14.5H14.4805H14.4609H14.4414H14.4219H14.4023H14.3828H14.3633H14.3437H14.3242H14.3047H14.2851H14.2656H14.2461H14.2266H14.207H14.1875H14.168H14.1484H14.1289H14.1094H14.0898H14.0703H14.0508H14.0312H14.0117H13.9922H13.9726H13.9531H13.9336H13.9141H13.8945H13.875H13.8555H13.8359H13.8164H13.7969H13.7773H13.7578H13.7383H13.7187H13.6992H13.6797H13.6601H13.6406H13.6211H13.6016H13.582H13.5625H13.543H13.5234H13.5039H13.4844H13.4648H13.4453H13.4258H13.4062H13.3867H13.3672H13.3476H13.3281H13.3086H13.2891H13.2695H13.25H13.2305H13.2109H13.1914H13.1719H13.1523H13.1328H13.1133H13.0937H13.0742H13.0547H13.0351H13.0156H12.9961H12.9766H12.957H12.9375H12.918H12.8984H12.8789H12.8594H12.8398H12.8203H12.8008H12.7812H12.7617H12.7422H12.7226H12.7031H12.6836H12.6641H12.6445H12.625H12.6055H12.5859H12.5664H12.5469H12.5273H12.5078H12.4883H12.4687H12.4492H12.4297H12.4101H12.3906H12.3711H12.3516H12.332H12.3125H12.293H12.2734H12.2539H12.2344H12.2148H12.1953H12.1758H12.1562H12.1367H12.1172H12.0976H12.0781H12.0586H12.0391H12.0195H12H11.9805H11.9609H11.9414H11.9219H11.9023H11.8828H11.8633H11.8437H11.8242H11.8047H11.7851H11.7656H11.7461H11.7266H11.707H11.6875H11.668H11.6484H11.6289H11.6094H11.5898H11.5703H11.5508H11.5312H11.5117H11.4922H11.4726H11.4531H11.4336H11.4141H11.3945H11.375H11.3555H11.3359H11.3164H11.2969H11.2773H11.2578H11.2383H11.2187H11.1992H11.1797H11.1601H11.1406H11.1211H11.1016H11.082H11.0625H11.043H11.0234H11.0039H10.9844H10.9648H10.9453H10.9258H10.9062H10.8867H10.8672H10.8476H10.8281H10.8086H10.7891H10.7695H10.75H10.7305H10.7109H10.6914H10.6719H10.6523H10.6328H10.6133H10.5937H10.5742H10.5547H10.5351H10.5156H10.4961H10.4766H10.457H10.4375H10.418H10.3984H10.3789H10.3594H10.3398H10.3203H10.3008H10.2812H10.2617H10.2422H10.2226H10.2031H10.1836H10.1641H10.1445H10.125H10.1055H10.0859H10.0664H10.0469H10.0273H10.0078H9.98827H9.96874H9.94921H9.92968H9.91015H9.89061H9.87108H9.85155H9.83202H9.81249H9.79296H9.77343H9.7539H9.73436H9.71483H9.6953H9.67577H9.65624H9.63671H9.61718H9.59765H9.57811H9.55858H9.53905H9.51952H9.49999H9.48046H9.46093H9.4414H9.42186H9.40233H9.3828H9.36327H9.34374H9.32421H9.30468H9.28515H9.26561H9.24608H9.22655H9.20702H9.18749H9.16796H9.14843H9.1289H9.10936H9.08983H9.0703H9.05077H9.03124H9.01171H8.99218H8.97265H8.95311H8.93358H8.91405H8.89452H8.87499H8.85546H8.83593H8.8164H8.79686H8.77733H8.7578H8.73827H8.71874H8.69921H8.67968H8.66015H8.64061H8.62108H8.60155H8.58202H8.56249H8.54296H8.52343H8.50389H8.48436H8.46483H8.4453H8.42577H8.40624H8.38671H8.36718H8.34764H8.32811H8.30858H8.28905H8.26952H8.24999H8.23046H8.21093H8.19139H8.17186H8.15233H8.1328H8.11327H8.09374H8.07421H8.05468H8.03514H8.01561H7.99608H7.97655H7.95702H7.93749H7.91796H7.89843H7.87889H7.85936H7.83983H7.8203H7.80077H7.78124H7.76171H7.74218H7.72264H7.70311H7.68358H7.66405H7.64452H7.62499H7.60546H7.58593H7.56639H7.54686H7.52733H7.5078H7.48827H7.46874H7.44921H7.42968H7.41014H7.39061H7.37108H7.35155H7.33202H7.31249H7.29296H7.27343H7.25389H7.23436H7.21483H7.1953H7.17577H7.15624H7.13671H7.11718H7.09764H7.07811H7.05858H7.03905H7.01952H6.99999C6.44771 18 6 17.5523 6 17ZM8.5 13C7.58079 13 6.50016 13.4263 5.66122 14.0568C4.82306 14.6868 4 15.6978 4 17C4 18.6568 5.34313 20 6.99999 20H7.01952H7.03905H7.05858H7.07811H7.09764H7.11718H7.13671H7.15624H7.17577H7.1953H7.21483H7.23436H7.25389H7.27343H7.29296H7.31249H7.33202H7.35155H7.37108H7.39061H7.41014H7.42968H7.44921H7.46874H7.48827H7.5078H7.52733H7.54686H7.56639H7.58593H7.60546H7.62499H7.64452H7.66405H7.68358H7.70311H7.72264H7.74218H7.76171H7.78124H7.80077H7.8203H7.83983H7.85936H7.87889H7.89843H7.91796H7.93749H7.95702H7.97655H7.99608H8.01561H8.03514H8.05468H8.07421H8.09374H8.11327H8.1328H8.15233H8.17186H8.19139H8.21093H8.23046H8.24999H8.26952H8.28905H8.30858H8.32811H8.34764H8.36718H8.38671H8.40624H8.42577H8.4453H8.46483H8.48436H8.50389H8.52343H8.54296H8.56249H8.58202H8.60155H8.62108H8.64061H8.66015H8.67968H8.69921H8.71874H8.73827H8.7578H8.77733H8.79686H8.8164H8.83593H8.85546H8.87499H8.89452H8.91405H8.93358H8.95311H8.97265H8.99218H9.01171H9.03124H9.05077H9.0703H9.08983H9.10936H9.1289H9.14843H9.16796H9.18749H9.20702H9.22655H9.24608H9.26561H9.28515H9.30468H9.32421H9.34374H9.36327H9.3828H9.40233H9.42186H9.4414H9.46093H9.48046H9.49999H9.51952H9.53905H9.55858H9.57811H9.59765H9.61718H9.63671H9.65624H9.67577H9.6953H9.71483H9.73436H9.7539H9.77343H9.79296H9.81249H9.83202H9.85155H9.87108H9.89061H9.91015H9.92968H9.94921H9.96874H9.98827H10.0078H10.0273H10.0469H10.0664H10.0859H10.1055H10.125H10.1445H10.1641H10.1836H10.2031H10.2226H10.2422H10.2617H10.2812H10.3008H10.3203H10.3398H10.3594H10.3789H10.3984H10.418H10.4375H10.457H10.4766H10.4961H10.5156H10.5351H10.5547H10.5742H10.5937H10.6133H10.6328H10.6523H10.6719H10.6914H10.7109H10.7305H10.75H10.7695H10.7891H10.8086H10.8281H10.8476H10.8672H10.8867H10.9062H10.9258H10.9453H10.9648H10.9844H11.0039H11.0234H11.043H11.0625H11.082H11.1016H11.1211H11.1406H11.1601H11.1797H11.1992H11.2187H11.2383H11.2578H11.2773H11.2969H11.3164H11.3359H11.3555H11.375H11.3945H11.4141H11.4336H11.4531H11.4726H11.4922H11.5117H11.5312H11.5508H11.5703H11.5898H11.6094H11.6289H11.6484H11.668H11.6875H11.707H11.7266H11.7461H11.7656H11.7851H11.8047H11.8242H11.8437H11.8633H11.8828H11.9023H11.9219H11.9414H11.9609H11.9805H12H12.0195H12.0391H12.0586H12.0781H12.0976H12.1172H12.1367H12.1562H12.1758H12.1953H12.2148H12.2344H12.2539H12.2734H12.293H12.3125H12.332H12.3516H12.3711H12.3906H12.4101H12.4297H12.4492H12.4687H12.4883H12.5078H12.5273H12.5469H12.5664H12.5859H12.6055H12.625H12.6445H12.6641H12.6836H12.7031H12.7226H12.7422H12.7617H12.7812H12.8008H12.8203H12.8398H12.8594H12.8789H12.8984H12.918H12.9375H12.957H12.9766H12.9961H13.0156H13.0351H13.0547H13.0742H13.0937H13.1133H13.1328H13.1523H13.1719H13.1914H13.2109H13.2305H13.25H13.2695H13.2891H13.3086H13.3281H13.3476H13.3672H13.3867H13.4062H13.4258H13.4453H13.4648H13.4844H13.5039H13.5234H13.543H13.5625H13.582H13.6016H13.6211H13.6406H13.6601H13.6797H13.6992H13.7187H13.7383H13.7578H13.7773H13.7969H13.8164H13.8359H13.8555H13.875H13.8945H13.9141H13.9336H13.9531H13.9726H13.9922H14.0117H14.0312H14.0508H14.0703H14.0898H14.1094H14.1289H14.1484H14.168H14.1875H14.207H14.2266H14.2461H14.2656H14.2851H14.3047H14.3242H14.3437H14.3633H14.3828H14.4023H14.4219H14.4414H14.4609H14.4805H14.5H14.5195H14.5391H14.5586H14.5781H14.5976H14.6172H14.6367H14.6562H14.6758H14.6953H14.7148H14.7344H14.7539H14.7734H14.793H14.8125H14.832H14.8516H14.8711H14.8906H14.9101H14.9297H14.9492H14.9687H14.9883H15.0078H15.0273H15.0469H15.0664H15.0859H15.1055H15.125H15.1445H15.1641H15.1836H15.2031H15.2226H15.2422H15.2617H15.2812H15.3008H15.3203H15.3398H15.3594H15.3789H15.3984H15.418H15.4375H15.457H15.4766H15.4961H15.5156H15.5351H15.5547H15.5742H15.5937H15.6133H15.6328H15.6523H15.6719H15.6914H15.7109H15.7305H15.75H15.7695H15.7891H15.8086H15.8281H15.8476H15.8672H15.8867H15.9062H15.9258H15.9453H15.9648H15.9844H16.0039H16.0234H16.043H16.0625H16.082H16.1016H16.1211H16.1406H16.1601H16.1797H16.1992H16.2187H16.2383H16.2578H16.2773H16.2969H16.3164H16.3359H16.3555H16.375H16.3945H16.4141H16.4336H16.4531H16.4726H16.4922H16.5117H16.5312H16.5508H16.5703H16.5898H16.6094H16.6289H16.6484H16.668H16.6875H16.707H16.7266H16.7461H16.7656H16.7851H16.8047H16.8242H16.8437H16.8633H16.8828H16.9023H16.9219H16.9414H16.9609H16.9805H17C18.6568 20 20 18.6568 20 17C20 15.6978 19.1769 14.6868 18.3388 14.0568C17.4998 13.4263 16.4192 13 15.5 13H8.5Z"/>
</svg>
