<svg width="24" height="24" viewBox="0 0 24 24" fill="none" xmlns="http://www.w3.org/2000/svg">
<path id="map" fill-rule="evenodd" clip-rule="evenodd" d="M7.85998 2.61798C8.54632 2.1508 9.44992 2.15625 10.1306 2.63167L14.074 5.386L18.5622 3.20024C19.2264 2.87675 20 3.36047 20 4.09929V9.67364C19.3783 9.3783 18.7061 9.1719 18 9.07089V5.75L15 7.167V9.28988C14.2776 9.50489 13.604 9.83339 13 10.2547V7.074L10 5V16V17.382C10 17.7607 9.786 18.107 9.44721 18.2764L4.44721 20.7764C3.78231 21.1088 3 20.6253 3 19.882V6.98401C3 6.32212 3.32746 5.70311 3.87463 5.33067L7.85998 2.61798ZM8 16.833V5L5 7.074V18.5L8 16.833ZM16 11.1C16.3231 11.0344 16.6575 11 17 11C17.3424 11 17.6769 11.0344 18 11.1L18 12.126C18.715 12.31 19.352 12.686 19.854 13.198L20.7428 12.6847C21.1846 13.183 21.5283 13.7701 21.7439 14.416L20.855 14.929C21.0493 15.6298 21.0493 16.3702 20.855 17.071L21.7439 17.584C21.5283 18.2299 21.1846 18.817 20.7428 19.3153L19.854 18.802C19.3449 19.3212 18.7039 19.6918 18 19.874V20.9C17.6769 20.9656 17.3424 21 17 21C16.6575 21 16.3231 20.9656 16 20.9V19.874C15.296 19.692 14.6549 19.3214 14.146 18.802L13.2571 19.3153C12.8154 18.817 12.4717 18.2299 12.2561 17.584L13.145 17.071C12.9505 16.3702 12.9505 15.6298 13.145 14.929L12.2561 14.416C12.4717 13.7701 12.8155 13.1828 13.2573 12.6845L14.146 13.197C14.6552 12.6784 15.2962 12.3084 16 12.127L16 11.1ZM15.249 15.033C15.0848 15.3289 14.9988 15.6617 14.999 16C14.999 16.35 15.09 16.68 15.249 16.967L15.285 17.03C15.4625 17.3264 15.7138 17.5717 16.0143 17.7421C16.3149 17.9124 16.6545 18.002 17 18.002C17.3455 18.002 17.6851 17.9124 17.9856 17.7421C18.2862 17.5717 18.5375 17.3264 18.715 17.03L18.751 16.967C18.9148 16.6711 19.0005 16.3383 19 16C19 15.65 18.91 15.32 18.751 15.033L18.715 14.97C18.5375 14.6736 18.2862 14.4283 17.9856 14.2579C17.6851 14.0876 17.3455 13.998 17 13.998C16.6545 13.998 16.3149 14.0876 16.0143 14.2579C15.7138 14.4283 15.4625 14.6736 15.285 14.97L15.249 15.033Z"/>
</svg>
