<svg width="24" height="24" viewBox="0 0 24 24" fill="none" xmlns="http://www.w3.org/2000/svg">
<path id="task" fill-rule="evenodd" clip-rule="evenodd" d="M8 7H7V18H17V7H16H8ZM15.4649 5H17C17.5304 5 18.0391 5.21071 18.4142 5.58579C18.7893 5.96086 19 6.46957 19 7V18C19 18.5304 18.7893 19.0391 18.4142 19.4142C18.0391 19.7893 17.5304 20 17 20H7C6.46957 20 5.96086 19.7893 5.58579 19.4142C5.21071 19.0391 5 18.5304 5 18V7C5 6.46957 5.21071 5.96086 5.58579 5.58579C5.96086 5.21071 6.46957 5 7 5H8.53513C9.22675 3.8044 10.5194 3 12 3C13.4806 3 14.7733 3.8044 15.4649 5ZM15 12V10H9V12H15ZM13 14H9V16H13V14Z"/>
</svg>
